<svg xmlns="http://www.w3.org/2000/svg" viewBox="0 0 1440 960" role="img" aria-labelledby="title desc">
  <title id="title">ICT授業の教室イメージ</title>
  <desc id="desc">児童がノートPCを使いながら電子黒板の授業を受けている明るい教室のイラスト</desc>
  <defs>
    <linearGradient id="wall" x1="0" x2="1" y1="0" y2="1"><stop offset="0" stop-color="#f7fffb"/><stop offset="1" stop-color="#d9f4ee"/></linearGradient>
    <linearGradient id="desk" x1="0" x2="1"><stop offset="0" stop-color="#f5c982"/><stop offset="1" stop-color="#e7a94e"/></linearGradient>
    <filter id="shadow" x="-20%" y="-20%" width="140%" height="140%"><feDropShadow dx="0" dy="16" stdDeviation="16" flood-color="#14463d" flood-opacity=".18"/></filter>
  </defs>
  <rect width="1440" height="960" fill="url(#wall)"/>
  <circle cx="1180" cy="135" r="170" fill="#9be6d5" opacity=".35"/>
  <circle cx="178" cy="170" r="118" fill="#ffd98b" opacity=".45"/>
  <rect x="92" y="92" width="1256" height="776" rx="54" fill="#fff" opacity=".72" filter="url(#shadow)"/>
  <rect x="158" y="144" width="1124" height="220" rx="30" fill="#1a7568"/>
  <rect x="195" y="180" width="620" height="150" rx="18" fill="#eefbf6" opacity=".95"/>
  <text x="235" y="242" font-family="'Noto Sans JP', sans-serif" font-size="36" font-weight="700" fill="#1f3a4a">わたしたちの生活とICT</text>
  <text x="235" y="295" font-family="'Noto Sans JP', sans-serif" font-size="25" fill="#16856e">調べる・まとめる・伝える</text>
  <g opacity=".9"><circle cx="960" cy="216" r="32" fill="#ffbd4a"/><rect x="1020" y="190" width="120" height="58" rx="16" fill="#45c39a"/><path d="M1170 260 l48 -84 l48 84z" fill="#66a6ff"/></g>
  <rect x="0" y="592" width="1440" height="368" fill="#f0d29b" opacity=".22"/>
  <g filter="url(#shadow)">
    <g transform="translate(104 490)"><rect width="315" height="190" rx="24" fill="url(#desk)"/><rect x="62" y="35" width="190" height="112" rx="12" fill="#2b4456"/><rect x="79" y="51" width="156" height="80" rx="8" fill="#e8f8ff"/><circle cx="160" cy="-34" r="42" fill="#ffd6bd"/><path d="M102 -28 q58 -72 116 0 v32 h-116z" fill="#26384c"/><path d="M65 162 h206" stroke="#9a6c2a" stroke-width="12" stroke-linecap="round"/></g>
    <g transform="translate(465 520)"><rect width="315" height="190" rx="24" fill="url(#desk)"/><rect x="56" y="35" width="204" height="112" rx="12" fill="#2b4456"/><rect x="74" y="52" width="168" height="78" rx="8" fill="#effffa"/><circle cx="160" cy="-34" r="42" fill="#f5c0ac"/><path d="M106 -32 q54 -58 108 0 v34 h-108z" fill="#2f2f35"/><path d="M66 162 h202" stroke="#9a6c2a" stroke-width="12" stroke-linecap="round"/></g>
    <g transform="translate(824 490)"><rect width="315" height="190" rx="24" fill="url(#desk)"/><rect x="58" y="34" width="200" height="112" rx="12" fill="#2b4456"/><rect x="76" y="51" width="164" height="78" rx="8" fill="#f4f7ff"/><circle cx="160" cy="-34" r="42" fill="#ffd9bd"/><path d="M106 -34 q54 -62 108 0 v32 h-108z" fill="#303f50"/><path d="M65 162 h205" stroke="#9a6c2a" stroke-width="12" stroke-linecap="round"/></g>
  </g>
  <g opacity=".2" fill="none" stroke="#16a085" stroke-width="4"><path d="M118 782c118-58 228-58 346 0s228 58 346 0 228-58 346 0"/><path d="M118 830c118-58 228-58 346 0s228 58 346 0 228-58 346 0"/></g>
</svg>
