<svg xmlns="http://www.w3.org/2000/svg" viewBox="0 0 900 620" role="img" aria-labelledby="title desc">
  <title id="title">学校ICT支援のイメージ</title>
  <desc id="desc">先生、児童、支援スタッフがタブレットを囲んで相談しているイラスト</desc>
  <defs><linearGradient id="bg" x1="0" x2="1" y1="0" y2="1"><stop offset="0" stop-color="#e8f9ff"/><stop offset="1" stop-color="#e8fff4"/></linearGradient></defs>
  <rect width="900" height="620" rx="44" fill="url(#bg)"/>
  <circle cx="140" cy="120" r="86" fill="#ffd98b" opacity=".65"/><circle cx="760" cy="130" r="120" fill="#8de1d0" opacity=".45"/>
  <rect x="190" y="380" width="520" height="96" rx="36" fill="#fff" opacity=".9"/>
  <rect x="322" y="220" width="255" height="170" rx="24" fill="#2f4858"/>
  <rect x="345" y="244" width="210" height="116" rx="16" fill="#f5fffb"/>
  <path d="M390 318h120M390 286h70" stroke="#20b486" stroke-width="12" stroke-linecap="round"/>
  <circle cx="230" cy="274" r="58" fill="#ffd6bd"/><path d="M172 250q58-78 116 0v40H172z" fill="#33495a"/><path d="M160 350q70-56 140 0l40 126H120z" fill="#21a8c3"/>
  <circle cx="670" cy="274" r="58" fill="#f5c0ac"/><path d="M612 252q58-78 116 0v38H612z" fill="#37465d"/><path d="M600 350q70-56 140 0l40 126H560z" fill="#20b486"/>
  <circle cx="450" cy="168" r="60" fill="#ffd7bd"/><path d="M388 148q62-82 124 0v38H388z" fill="#25394b"/><path d="M365 250q85-62 170 0l48 150H317z" fill="#ffb84d"/>
  <path d="M245 420h410" stroke="#d7e8e3" stroke-width="16" stroke-linecap="round"/>
</svg>
